<?xml version="1.0" encoding="UTF-8" standalone="no"?>
<!-- Created with Inkscape (http://www.inkscape.org/) -->

<svg
   width="65.087494mm"
   height="64.02919mm"
   viewBox="0 0 65.087494 64.02919"
   version="1.1"
   id="svg466"
   inkscape:version="1.2.2 (b0a8486541, 2022-12-01)"
   sodipodi:docname="codevum.svg"
   xmlns:inkscape="http://www.inkscape.org/namespaces/inkscape"
   xmlns:sodipodi="http://sodipodi.sourceforge.net/DTD/sodipodi-0.dtd"
   xmlns="http://www.w3.org/2000/svg"
   xmlns:svg="http://www.w3.org/2000/svg">
  <sodipodi:namedview
     id="namedview468"
     pagecolor="#505050"
     bordercolor="#eeeeee"
     borderopacity="1"
     inkscape:showpageshadow="0"
     inkscape:pageopacity="0"
     inkscape:pagecheckerboard="0"
     inkscape:deskcolor="#d1d1d1"
     inkscape:document-units="mm"
     showgrid="false"
     inkscape:zoom="1.1893044"
     inkscape:cx="138.73656"
     inkscape:cy="139.9978"
     inkscape:window-width="2560"
     inkscape:window-height="1403"
     inkscape:window-x="0"
     inkscape:window-y="0"
     inkscape:window-maximized="1"
     inkscape:current-layer="layer1" />
  <defs
     id="defs463" />
  <g
     inkscape:label="Lager 1"
     inkscape:groupmode="layer"
     id="layer1"
     transform="translate(-79.460487,-110.19303)">
    <g
       id="g804">
      <rect
         style="fill:#a40000;stroke:none;stroke-width:3.175;stroke-linecap:butt;stroke-linejoin:round;stroke-dasharray:none"
         id="rect871"
         width="65.087494"
         height="64.02919"
         x="79.460487"
         y="110.19303" />
      <g
         id="g1449"
         transform="translate(63.056289,-118.40707)">
        <path
           id="path873"
           style="fill:none;stroke:#ffffff;stroke-width:1.5875;stroke-linecap:butt;stroke-linejoin:round;stroke-dasharray:none"
           d="m 44.07028,283.37499 v -7.14375 m -3.175,3.96875 c 1.5875,0 2.38125,0.59531 2.77813,1.28984 0.39687,0.69453 0.39687,1.48828 0.39687,1.88516 0,0.79375 0,3.175 -3.18646,3.175 -3.16354,0 -3.16354,-2.38125 -3.16354,-3.175 0,-0.79375 0,-3.175 3.175,-3.175 z" />
        <path
           id="path875"
           style="fill:none;stroke:#ffffff;stroke-width:1.5875;stroke-linecap:round;stroke-dasharray:none"
           d="m 49.10882,280.19999 c 3.175,-1e-5 3.175,2.38125 3.175,3.175 0,0.79375 0,3.175 -3.18646,3.175 -3.16354,0 -3.16354,-2.38125 -3.16354,-3.175 0,-0.79375 0,-3.175 3.175,-3.175 z"
           sodipodi:nodetypes="ccccc" />
        <path
           style="fill:#ffffff;stroke:#ffffff;stroke-width:1.5875;stroke-linecap:butt;stroke-linejoin:round;stroke-dasharray:none"
           d="M 51.91556,282.58748 46.0375,284.1625"
           id="path877" />
        <path
           id="path879"
           style="fill:none;stroke:#a40000;stroke-width:3.175;stroke-linecap:butt;stroke-linejoin:round;stroke-dasharray:none"
           d="m 58.26556,279.27395 v 3.96875 c 0,0.79375 -2.38125,3.175 -3.18646,3.175 -0.78229,0 -3.16354,-2.38125 -3.16354,-3.175 v -3.96875"
           sodipodi:nodetypes="ccccc" />
        <path
           id="path881"
           style="fill:none;stroke:#ffffff;stroke-width:1.5875;stroke-linecap:round;stroke-dasharray:none"
           d="m 26.35466,280.19998 c 3.175,-10e-6 3.175,2.38125 3.175,3.175 0,0.79375 0,3.175 -3.18646,3.175 -3.16354,0 -3.16355,-2.38125 -3.16354,-3.175 -10e-6,-0.79375 -10e-6,-3.175 3.175,-3.175 z"
           sodipodi:nodetypes="ccccc" />
        <path
           id="path883"
           style="fill:none;stroke:#a40000;stroke-width:3.175;stroke-linecap:round;stroke-dasharray:none"
           d="m 32.17549,280.19998 c 3.175,-10e-6 3.175,2.38125 3.175,3.175 0,0.79375 0,3.175 -3.18646,3.175 -3.16354,0 -3.16354,-2.38125 -3.16354,-3.175 0,-0.79375 0,-3.175 3.175,-3.175 z"
           sodipodi:nodetypes="ccccc" />
        <path
           id="path885"
           style="fill:none;stroke:#ffffff;stroke-width:1.5875;stroke-linecap:butt;stroke-linejoin:round;stroke-dasharray:none"
           d="m 58.10466,279.40624 v 3.96875 c 0,0.79375 -2.38125,3.175 -3.18646,3.175 -0.78229,0 -3.16355,-2.38125 -3.16354,-3.175 v -3.96875"
           sodipodi:nodetypes="ccccc" />
        <path
           id="path887"
           style="fill:none;stroke:#ffffff;stroke-width:1.5875;stroke-linecap:round;stroke-dasharray:none"
           d="m 32.17549,280.19998 c 3.175,-10e-6 3.175,2.38125 3.175,3.175 0,0.79375 0,3.175 -3.18646,3.175 -3.16354,0 -3.16354,-2.38125 -3.16354,-3.175 0,-0.79375 0,-3.175 3.175,-3.175 z"
           sodipodi:nodetypes="ccccc" />
        <path
           id="path889"
           style="fill:none;stroke:#ffffff;stroke-width:1.5875;stroke-linecap:butt;stroke-linejoin:round;stroke-dasharray:none"
           d="m 65.11031,279.40623 v 3.96875 c 0,0.79375 0,3.175 -2.32043,3.175 -2.30374,0 -2.30374,-2.38125 -2.30374,-3.175 v -3.96875"
           sodipodi:nodetypes="ccccc" />
        <path
           id="path891"
           style="fill:none;stroke:#ffffff;stroke-width:1.5875;stroke-linecap:butt;stroke-linejoin:round;stroke-dasharray:none"
           d="m 71.0807,287.34373 v -7.9375 m 3.96875,7.9375 v -3.96875 c 0,-2.11677 0.002,-3.1751 -3.18646,-3.175 m -1.57631,0 c -3.16354,0 -3.17473,1.05823 -3.17473,3.175 v 3.96875"
           sodipodi:nodetypes="cccsccsc" />
        <rect
           style="fill:#ffffff;stroke:#a40000;stroke-width:1.5875;stroke-linecap:butt;stroke-linejoin:round;stroke-dasharray:none"
           id="rect893"
           width="3.175"
           height="1.5875"
           x="112.61716"
           y="254.15642"
           transform="rotate(15)" />
      </g>
      <g
         id="g907"
         transform="matrix(2.4988786,0,0,2.4988786,-162.98094,-237.56029)">
        <path
           id="path897"
           style="fill:none;stroke:#ffffff;stroke-width:1.5875;stroke-linecap:round;stroke-dasharray:none"
           d="m 106.4948,147.10835 c 3.175,-1e-5 3.175,2.38125 3.175,3.175 0,0.79375 0,3.175 -3.18646,3.175 -3.16354,0 -3.16355,-2.38125 -3.16354,-3.175 -1e-5,-0.79375 -1e-5,-3.175 3.175,-3.175 z"
           sodipodi:nodetypes="ccccc" />
        <path
           id="path899"
           style="fill:none;stroke:#a40000;stroke-width:3.175;stroke-linecap:round;stroke-dasharray:none"
           d="m 112.31563,147.10835 c 3.175,-1e-5 3.175,2.38125 3.175,3.175 0,0.79375 0,3.175 -3.18646,3.175 -3.16354,0 -3.16354,-2.38125 -3.16354,-3.175 0,-0.79375 0,-3.175 3.175,-3.175 z"
           sodipodi:nodetypes="ccccc" />
        <g
           id="g905"
           transform="translate(-8.5875033)">
          <path
             id="path901"
             style="fill:none;stroke:#ffffff;stroke-width:1.5875;stroke-linecap:butt;stroke-linejoin:round;stroke-dasharray:none"
             d="m 124.21042,150.28336 v -7.14375 m -3.175,3.96875 c 1.5875,0 2.38125,0.59531 2.77813,1.28984 0.39687,0.69453 0.39687,1.48828 0.39687,1.88516 0,0.79375 0,3.175 -3.18646,3.175 -3.16354,0 -3.16354,-2.38125 -3.16354,-3.175 0,-0.79375 0,-3.175 3.175,-3.175 z" />
          <rect
             style="fill:#ffffff;stroke:#a40000;stroke-width:1.5875;stroke-linecap:butt;stroke-linejoin:round;stroke-dasharray:none"
             id="rect903"
             width="3.175"
             height="1.5875"
             x="155.57996"
             y="104.85799"
             transform="rotate(15)" />
        </g>
      </g>
      <path
         id="path1367"
         style="fill:none;stroke:#ffffff;stroke-width:1.29732;stroke-linecap:round;stroke-dasharray:none"
         d="m 84.941135,114.01585 c 1.656755,0 1.656755,1.24256 1.656755,1.65675 0,0.4142 0,1.65676 -1.662734,1.65676 -1.650776,0 -1.650776,-1.24256 -1.650776,-1.65676 0,-0.41419 0,-1.65675 1.656755,-1.65675 z"
         sodipodi:nodetypes="ccccc" />
      <path
         id="path1382"
         style="fill:none;stroke:#ffffff;stroke-width:1.29732;stroke-linecap:round;stroke-dasharray:none"
         d="m 84.941135,117.32936 c 1.656755,0 1.656755,1.24256 1.656755,1.65675 0,0.41419 0,1.65677 -1.662734,1.65677 -1.650776,0 -1.650776,-1.24258 -1.650776,-1.65677 0,-0.41419 0,-1.65675 1.656755,-1.65675 z"
         sodipodi:nodetypes="ccccc" />
      <path
         id="path1384"
         style="fill:none;stroke:#ffffff;stroke-width:1.29732;stroke-linecap:butt;stroke-linejoin:round;stroke-dasharray:none"
         d="m 88.254644,114.98228 c 0,-0.96643 0,-0.96643 2.070945,-0.96643 1.242565,0 1.242565,0 1.242565,1.24257 0,1.79481 -2.485132,2.18125 -2.485132,6.04701"
         sodipodi:nodetypes="cscc" />
    </g>
  </g>
</svg>
