<?xml version="1.0" encoding="UTF-8" standalone="no"?>
<svg
   viewBox="0 0 160.1384 52"
   width="160.1384"
   fill="none"
   class="mr-12"
   version="1.1"
   id="svg6"
   height="52"
   xmlns="http://www.w3.org/2000/svg"
   xmlns:svg="http://www.w3.org/2000/svg">
  <defs
     id="defs10" />
  <path
     fill-rule="evenodd"
     clip-rule="evenodd"
     d="M 39.6208,12.54695 C 37.0594,10 33.1415,10 26.0911,10 19.04082,10 15.12292,10 12.56146,12.54695 10,15.0939 10,18.98961 10,26 10,33.0104 10,36.9061 12.56146,39.453 15.12292,42 19.04082,42 26.0911,42 33.1415,42 37.0594,42 39.6208,39.453 42.1823,36.9061 42.1823,33.0104 42.1823,26 V 25.9856 C 42.1791,18.98426 42.1774,15.09215 39.6208,12.54695 Z M 15.64971,20.1847 c 0.3817,-0.37956 0.96843,-0.37956 2.02203,-0.37956 h 10e-6 10e-6 c 1.0536,0 1.64033,0 2.02203,0.37956 0.38171,0.3795 0.38171,0.9629 0.38171,2.0105 v 10e-5 0 c 0,1.0476 0,1.631 -0.38171,2.0105 -0.3817,0.3796 -0.96843,0.3796 -2.02203,0.3796 h -10e-6 -10e-6 c -1.0536,0 -1.64033,0 -2.02203,-0.3796 -0.38169,-0.3795 -0.38169,-0.9629 -0.38169,-2.0105 v 0 -10e-5 c 0,-1.0476 0,-1.631 0.38169,-2.0105 z M 26.8671,32.1949 c 1.0536,0 1.6404,0 2.0221,-0.3796 0.3848,-0.3795 0.3848,-0.9629 0.3817,-2.0106 0,-1.0476 0,-1.631 -0.3817,-2.0105 -0.3817,-0.3796 -0.9685,-0.3796 -2.0221,-0.3796 h -9.19535 c -1.0536,0 -1.64034,0 -2.02204,0.3796 -0.38169,0.3795 -0.38169,0.9629 -0.38169,2.0105 0,1.0477 0,1.6311 0.38169,2.0106 0.3817,0.3796 0.96844,0.3796 2.02204,0.3796 z m 9.6812,-0.3796 c -0.3817,0.3796 -0.9684,0.3796 -2.022,0.3796 -1.0536,0 -1.6404,0 -2.0221,-0.3796 -0.3817,-0.3795 -0.3817,-0.9629 -0.3817,-2.0106 0,-1.0476 0,-1.631 0.3817,-2.0105 0.3817,-0.3796 0.9685,-0.3796 2.0221,-0.3796 1.0536,0 1.6403,0 2.022,0.3796 0.3817,0.3795 0.3817,0.9629 0.3817,2.0105 0.0032,1.0477 0.0032,1.6311 -0.3817,2.0106 z m -2.022,-7.2299 c 1.0536,0 1.6403,0 2.022,-0.3796 0.3849,-0.3826 0.3849,-0.9629 0.3817,-2.0105 v -10e-5 c 0,-1.0476 0,-1.631 -0.3817,-2.0105 -0.3817,-0.37956 -0.9684,-0.37956 -2.022,-0.37956 h -9.1954 v 0 c -1.0536,0 -1.6403,0 -2.022,0.37956 -0.3817,0.3795 -0.3817,0.9629 -0.3817,2.0105 v 10e-5 0 c 0,1.0476 0,1.631 0.3817,2.0105 0.3817,0.3796 0.9684,0.3796 2.022,0.3796 v 0 z"
     fill="#ffffff"
     id="path2" />
  <path
     fill="#ffffff"
     fill-rule="evenodd"
     clip-rule="evenodd"
     d="m 125.2524,14.494873 c -0.7097,0 -1.1041,0 -1.3627,0.257205 -0.2587,0.257202 -0.2587,0.649282 -0.2587,1.355012 v 2e-5 10e-6 c 0,0.70574 0,1.09781 0.2587,1.35501 0.2586,0.25721 0.653,0.25721 1.3627,0.25721 0.7098,0 1.1041,0 1.3628,-0.25721 0.2586,-0.2572 0.2586,-0.64928 0.2586,-1.35502 0,-0.70575 0,-1.09783 -0.2586,-1.355032 -0.2556,-0.257205 -0.6499,-0.257205 -1.3628,-0.257205 z M 83.6509,19.72992 h -2.8138 v -3.04568 c 0,-0.2572 -0.2114,-0.46736 -0.47,-0.46736 h -1.9338 c -0.2586,0 -0.47,0.21016 -0.47,0.46736 v 3.04568 h -1.9148 c -0.2587,0 -0.47,0.21015 -0.47,0.46736 v 1.76906 c 0,0.25721 0.2113,0.46736 0.47,0.46736 h 1.9148 v 5.0719 c 0,3.1618 1.8454,4.843 4.6151,4.843 0.3344,0 0.7602,-0.0251 1.1356,-0.0784 0.2303,-0.0314 0.4006,-0.229 0.4006,-0.4611 v -1.6875 c 0,-0.2729 -0.2334,-0.4862 -0.5078,-0.4642 -0.1388,0.0125 -0.2808,0.0157 -0.4164,0.0157 -1.3849,0 -2.3596,-0.6368 -2.3596,-2.2176 v -5.02494 h 2.8138 c 0.2587,0 0.47,-0.21015 0.47,-0.46735 v -1.76907 c 0.0063,-0.25721 -0.205,-0.46422 -0.4637,-0.46422 z M 69.2601,19.47271 c -1.6656,0 -3,0.81553 -3.7949,2.21761 v -1.49618 c 0,-0.25721 -0.2114,-0.46736 -0.47,-0.46736 h -1.90536 c -0.25866,0 -0.47001,0.21015 -0.47001,0.46736 V 31.7276 c 0,0.2572 0.21135,0.4673 0.47001,0.4673 h 1.90846 c 0.2587,0 0.47,-0.2101 0.47,-0.4673 v -6.289 c 0,-1.96354 1.2303,-3.23701 3.1009,-3.23701 1.8202,0 3.0252,1.27347 3.0252,3.23701 v 6.289 c 0,0.2572 0.2113,0.4673 0.47,0.4673 h 1.9337 c 0.2587,0 0.47,-0.2101 0.47,-0.4673 V 25.081 C 74.465,21.61504 72.465,19.47271 69.2601,19.47271 Z m 15.8072,6.42379 c 0,-3.61963 2.8453,-6.42379 6.4604,-6.42379 3.3848,0 6.1292,2.57518 6.1292,6.22309 0,0.16 -0.006,0.3952 -0.0189,0.6211 -0.0158,0.323 -0.2839,0.5771 -0.6088,0.5771 h -9.0629 c 0.3596,1.8349 1.6403,2.9829 3.6655,2.9829 1.4101,0 2.5394,-0.5991 2.9148,-1.5244 0.0662,-0.1599 0.2302,-0.2603 0.4037,-0.2603 h 2.0221 c 0.2807,0 0.4826,0.2697 0.4038,0.5395 -0.6751,2.318 -2.9369,3.8173 -5.798,3.8173 -3.6656,0 -6.5109,-2.8293 -6.5109,-6.5525 z m 6.309,-3.84861 c -1.694,0 -2.9242,0.89081 -3.3343,2.42151 h 6.514 c -0.2586,-1.42719 -1.4605,-2.42151 -3.1797,-2.42151 z m 15.3656,-2.49363 c -0.2649,-0.04704 -0.5362,-0.08155 -0.7949,-0.08155 -1.4858,0 -2.6403,0.71515 -3.3848,1.91335 v -1.19192 c 0,-0.25721 -0.2113,-0.46736 -0.47,-0.46736 h -1.9053 c -0.2587,0 -0.47,0.21015 -0.47,0.46736 V 31.7276 c 0,0.2572 0.2113,0.4673 0.47,0.4673 h 1.9084 c 0.2587,0 0.4701,-0.2101 0.4701,-0.4673 v -6.1855 c 0,-2.24269 1.4857,-3.49107 3.3059,-3.49107 0.2303,0 0.47,0.02509 0.7097,0.06273 0.2871,0.04705 0.5489,-0.16938 0.5489,-0.45795 v -1.6436 c -0.003,-0.22583 -0.164,-0.42031 -0.388,-0.45795 z m 11.9492,0.14742 h 1.9337 c 0.2586,0 0.47,0.21016 0.4668,0.46736 V 31.8813 c 0,3.491 -2.7444,5.6585 -6.3847,5.6585 -2.3785,0 -5.7444,-0.9348 -6.227,-3.9993 -0.0442,-0.2823 0.1766,-0.5363 0.4637,-0.5363 h 1.9274 c 0.2145,0 0.4006,0.1474 0.4543,0.3544 0.2902,1.1574 1.6719,1.813 3.3059,1.813 1.9747,0 3.5898,-1.2735 3.5898,-3.1868 V 29.695 c -0.8959,1.5307 -2.4353,2.3964 -4.4352,2.3964 -3.3343,0 -5.9999,-2.8324 -5.9999,-6.3235 0,-3.49103 2.6656,-6.29519 5.9999,-6.29519 1.9999,0 3.5393,0.86571 4.4352,2.3713 v -1.67497 c 0,-0.2572 0.2114,-0.46736 0.4701,-0.46736 z m -8.0819,6.06942 c 0,2.0639 1.6656,3.6698 3.7949,3.6698 2.1766,0 3.8201,-1.5557 3.8201,-3.6698 0,-2.08902 -1.6404,-3.66989 -3.8201,-3.66989 -2.1293,0 -3.7949,1.63106 -3.7949,3.66989 z m 25.6745,-6.21684 c -0.2649,-0.04704 -0.5362,-0.08155 -0.7949,-0.08155 -1.4858,0 -2.6403,0.71515 -3.3848,1.91335 v -1.19192 c 0,-0.25721 -0.2113,-0.46736 -0.47,-0.46736 h -1.9085 c -0.2586,0 -0.47,0.21015 -0.47,0.46736 V 31.7276 c 0,0.2572 0.2114,0.4673 0.47,0.4673 h 1.9085 c 0.2587,0 0.47,-0.2101 0.47,-0.4673 v -6.1855 c 0,-2.24269 1.4858,-3.49107 3.3059,-3.49107 0.2303,0 0.4701,0.02509 0.7098,0.06273 0.2871,0.04705 0.5489,-0.16938 0.5489,-0.45795 v -1.6436 c 0,-0.22583 -0.1609,-0.42031 -0.3849,-0.45795 z m 0.8581,6.41754 c 0,-3.69493 2.8202,-6.49909 6.4857,-6.49909 3.6655,0 6.5109,2.80416 6.5109,6.49909 0,3.695 -2.8454,6.4741 -6.5109,6.4741 -3.6655,0 -6.4857,-2.7791 -6.4857,-6.4741 z m 2.8201,0.0032 c 0,2.1172 1.5899,3.7482 3.6656,3.7482 2.0756,0 3.6907,-1.6341 3.6907,-3.7482 0,-2.14236 -1.6151,-3.77341 -3.6907,-3.77341 -2.0757,0 -3.6656,1.63105 -3.6656,3.77341 z M 126.183,19.72991 h -1.9085 c -0.2587,0 -0.47,0.21015 -0.47,0.46736 V 31.7307 c 0,0.2572 0.2113,0.4674 0.47,0.4674 h 1.9085 c 0.2587,0 0.47,-0.2102 0.47,-0.4674 V 20.19413 c -0.003,-0.25721 -0.2113,-0.46422 -0.47,-0.46422 z m -67.15302,0 h 0.02524 c 0.36276,0 0.65614,0.28857 0.6593,0.64928 V 31.7338 c 0,0.2572 -0.21136,0.4674 -0.47003,0.4674 h -1.90848 c -0.25867,0 -0.47002,-0.2102 -0.47002,-0.4674 v -9.17151 h -1.71922 c -0.258663,0 -0.470012,-0.21015 -0.470012,-0.46736 v -1.89766 c 0,-0.25721 0.211349,-0.46736 0.470012,-0.46736 h 2.18609 z m -2.10404,-4.977832 c 0.25867,-0.257205 0.65299,-0.257205 1.36275,-0.257205 0.70976,0 1.10407,0 1.36274,0.257205 0.25867,0.257202 0.25867,0.649282 0.25867,1.355032 0,0.70574 0,1.09782 -0.25867,1.35502 -0.25867,0.25721 -0.65298,0.25721 -1.36274,0.25721 -0.70976,0 -1.10408,0 -1.36275,-0.25721 -0.25867,-0.2572 -0.25867,-0.64928 -0.25867,-1.35502 0,-0.70575 0,-1.09783 0.25867,-1.355032 z"
     id="path4" />
</svg>
