<?xml version="1.0" encoding="UTF-8" standalone="no"?>
<svg
   viewBox="0 0 240.2076 78"
   width="240.2076"
   fill="none"
   class="mr-12"
   version="1.1"
   id="svg6"
   height="78"
   xmlns="http://www.w3.org/2000/svg"
   xmlns:svg="http://www.w3.org/2000/svg">
  <defs
     id="defs10" />
  <path
     fill-rule="evenodd"
     clip-rule="evenodd"
     d="M 59.4312,18.820425 C 55.5891,15 49.71225,15 39.13665,15 28.56123,15 22.68438,15 18.84219,18.820425 15,22.64085 15,28.484415 15,39 15,49.5156 15,55.35915 18.84219,59.1795 22.68438,63 28.56123,63 39.13665,63 49.71225,63 55.5891,63 59.4312,59.1795 63.27345,55.35915 63.27345,49.5156 63.27345,39 V 38.9784 C 63.26865,28.47639 63.2661,22.638225 59.4312,18.820425 Z M 23.474565,30.27705 c 0.57255,-0.56934 1.452645,-0.56934 3.033045,-0.56934 h 1.5e-5 1.5e-5 c 1.5804,0 2.460495,0 3.033045,0.56934 0.572565,0.56925 0.572565,1.44435 0.572565,3.01575 v 1.5e-4 0 c 0,1.5714 0,2.4465 -0.572565,3.01575 -0.57255,0.5694 -1.452645,0.5694 -3.033045,0.5694 h -1.5e-5 -1.5e-5 c -1.5804,0 -2.460495,0 -3.033045,-0.5694 C 22.90203,35.73945 22.90203,34.86435 22.90203,33.29295 v 0 -1.5e-4 c 0,-1.5714 0,-2.4465 0.572535,-3.01575 z m 16.826085,18.0153 c 1.5804,0 2.4606,0 3.03315,-0.5694 0.5772,-0.56925 0.5772,-1.44435 0.57255,-3.0159 0,-1.5714 0,-2.4465 -0.57255,-3.01575 -0.57255,-0.5694 -1.45275,-0.5694 -3.03315,-0.5694 H 26.507625 c -1.5804,0 -2.46051,0 -3.03306,0.5694 -0.572535,0.56925 -0.572535,1.44435 -0.572535,3.01575 0,1.57155 0,2.44665 0.572535,3.0159 0.57255,0.5694 1.45266,0.5694 3.03306,0.5694 z m 14.5218,-0.5694 c -0.57255,0.5694 -1.4526,0.5694 -3.033,0.5694 -1.5804,0 -2.4606,0 -3.03315,-0.5694 -0.57255,-0.56925 -0.57255,-1.44435 -0.57255,-3.0159 0,-1.5714 0,-2.4465 0.57255,-3.01575 0.57255,-0.5694 1.45275,-0.5694 3.03315,-0.5694 1.5804,0 2.46045,0 3.033,0.5694 0.57255,0.56925 0.57255,1.44435 0.57255,3.01575 0.0048,1.57155 0.0048,2.44665 -0.57255,3.0159 z m -3.033,-10.84485 c 1.5804,0 2.46045,0 3.033,-0.5694 0.57735,-0.5739 0.57735,-1.44435 0.57255,-3.01575 v -1.5e-4 c 0,-1.5714 0,-2.4465 -0.57255,-3.01575 -0.57255,-0.56934 -1.4526,-0.56934 -3.033,-0.56934 h -13.7931 v 0 c -1.5804,0 -2.46045,0 -3.033,0.56934 C 34.3908,30.8463 34.3908,31.7214 34.3908,33.2928 v 1.5e-4 0 c 0,1.5714 0,2.4465 0.57255,3.01575 0.57255,0.5694 1.4526,0.5694 3.033,0.5694 v 0 z"
     fill="#ffffff"
     id="path2"
     style="stroke-width:1" />
  <path
     fill="#ffffff"
     fill-rule="evenodd"
     clip-rule="evenodd"
     d="m 187.8786,21.742309 c -1.06455,0 -1.65615,0 -2.04405,0.385808 -0.38805,0.385803 -0.38805,0.973923 -0.38805,2.032518 v 3e-5 1.5e-5 c 0,1.05861 0,1.646715 0.38805,2.032515 0.3879,0.385815 0.9795,0.385815 2.04405,0.385815 1.0647,0 1.65615,0 2.0442,-0.385815 0.3879,-0.3858 0.3879,-0.97392 0.3879,-2.03253 0,-1.058625 0,-1.646745 -0.3879,-2.032548 -0.3834,-0.385808 -0.97485,-0.385808 -2.0442,-0.385808 z m -62.40225,7.852571 h -4.2207 v -4.56852 c 0,-0.3858 -0.3171,-0.70104 -0.705,-0.70104 h -2.9007 c -0.3879,0 -0.705,0.31524 -0.705,0.70104 v 4.56852 h -2.8722 c -0.38805,0 -0.705,0.315225 -0.705,0.70104 v 2.65359 c 0,0.385815 0.31695,0.70104 0.705,0.70104 h 2.8722 v 7.60785 c 0,4.7427 2.7681,7.2645 6.92265,7.2645 0.5016,0 1.1403,-0.03765 1.7034,-0.1176 0.34545,-0.0471 0.6009,-0.3435 0.6009,-0.69165 V 45.1824 c 0,-0.40935 -0.3501,-0.7293 -0.7617,-0.6963 -0.2082,0.01875 -0.4212,0.02355 -0.6246,0.02355 -2.07735,0 -3.5394,-0.9552 -3.5394,-3.3264 v -7.53741 h 4.2207 c 0.38805,0 0.705,-0.315225 0.705,-0.701025 V 30.29121 c 0.01,-0.385815 -0.3075,-0.69633 -0.69555,-0.69633 z m -21.5862,-0.385815 c -2.4984,0 -4.5,1.223295 -5.69235,3.326415 v -2.24427 c 0,-0.385815 -0.3171,-0.70104 -0.705,-0.70104 h -2.85804 c -0.38799,0 -0.705015,0.315225 -0.705015,0.70104 V 47.5914 c 0,0.3858 0.317025,0.70095 0.705015,0.70095 h 2.86269 c 0.38805,0 0.705,-0.31515 0.705,-0.70095 v -9.4335 c 0,-2.94531 1.84545,-4.855515 4.65135,-4.855515 2.7303,0 4.5378,1.910205 4.5378,4.855515 v 9.4335 c 0,0.3858 0.31695,0.70095 0.705,0.70095 h 2.90055 c 0.38805,0 0.705,-0.31515 0.705,-0.70095 v -9.9699 c -0.005,-5.19894 -3.00465,-8.412435 -7.812,-8.412435 z m 23.7108,9.635685 c 0,-5.429445 4.26795,-9.635685 9.6906,-9.635685 5.0772,0 9.1938,3.86277 9.1938,9.334635 0,0.24 -0.009,0.5928 -0.0284,0.93165 -0.0237,0.4845 -0.42585,0.86565 -0.9132,0.86565 h -13.5943 c 0.5394,2.75235 2.46045,4.47435 5.49825,4.47435 2.11515,0 3.8091,-0.89865 4.3722,-2.2866 0.0993,-0.23985 0.3453,-0.39045 0.60555,-0.39045 h 3.03315 c 0.42105,0 0.7239,0.40455 0.6057,0.80925 -1.01265,3.477 -4.40535,5.72595 -8.697,5.72595 -5.4984,0 -9.76635,-4.24395 -9.76635,-9.82875 z m 9.4635,-5.772915 c -2.541,0 -4.3863,1.336215 -5.00145,3.632265 h 9.771 c -0.3879,-2.140785 -2.19075,-3.632265 -4.76955,-3.632265 z m 23.0484,-3.740445 c -0.39735,-0.07056 -0.8043,-0.122325 -1.19235,-0.122325 -2.2287,0 -3.96045,1.072725 -5.0772,2.870025 v -1.78788 c 0,-0.385815 -0.31695,-0.70104 -0.705,-0.70104 h -2.85795 c -0.38805,0 -0.705,0.315225 -0.705,0.70104 V 47.5914 c 0,0.3858 0.31695,0.70095 0.705,0.70095 h 2.8626 c 0.38805,0 0.70515,-0.31515 0.70515,-0.70095 v -9.27825 c 0,-3.364035 2.22855,-5.236605 4.95885,-5.236605 0.34545,0 0.705,0.03764 1.06455,0.09409 0.43065,0.07058 0.82335,-0.25407 0.82335,-0.686925 v -2.4654 c -0.005,-0.338745 -0.246,-0.630465 -0.582,-0.686925 z m 17.9238,0.22113 h 2.90055 c 0.3879,0 0.705,0.31524 0.7002,0.70104 v 17.56839 c 0,5.2365 -4.1166,8.48775 -9.57705,8.48775 -3.56775,0 -8.6166,-1.4022 -9.3405,-5.99895 -0.0663,-0.42345 0.2649,-0.80445 0.69555,-0.80445 h 2.8911 c 0.32175,0 0.6009,0.2211 0.68145,0.5316 0.4353,1.7361 2.50785,2.7195 4.95885,2.7195 2.96205,0 5.3847,-1.91025 5.3847,-4.7802 v -3.4347 c -1.34385,2.29605 -3.65295,3.5946 -6.6528,3.5946 -5.00145,0 -8.99985,-4.2486 -8.99985,-9.48525 0,-5.236545 3.9984,-9.442785 8.99985,-9.442785 2.99985,0 5.30895,1.298565 6.6528,3.55695 V 30.25356 c 0,-0.3858 0.3171,-0.70104 0.70515,-0.70104 z m -12.12285,9.10413 c 0,3.09585 2.4984,5.5047 5.69235,5.5047 3.2649,0 5.73015,-2.33355 5.73015,-5.5047 0,-3.13353 -2.4606,-5.504835 -5.73015,-5.504835 -3.19395,0 -5.69235,2.44659 -5.69235,5.504835 z m 38.51175,-9.32526 c -0.39735,-0.07056 -0.8043,-0.122325 -1.19235,-0.122325 -2.2287,0 -3.96045,1.072725 -5.0772,2.870025 v -1.78788 c 0,-0.385815 -0.31695,-0.70104 -0.705,-0.70104 h -2.86275 c -0.3879,0 -0.705,0.315225 -0.705,0.70104 V 47.5914 c 0,0.3858 0.3171,0.70095 0.705,0.70095 h 2.86275 c 0.38805,0 0.705,-0.31515 0.705,-0.70095 v -9.27825 c 0,-3.364035 2.2287,-5.236605 4.95885,-5.236605 0.34545,0 0.70515,0.03764 1.0647,0.09409 0.43065,0.07058 0.82335,-0.25407 0.82335,-0.686925 v -2.4654 c 0,-0.338745 -0.24135,-0.630465 -0.57735,-0.686925 z m 1.28715,9.62631 c 0,-5.542395 4.2303,-9.748635 9.72855,-9.748635 5.49825,0 9.76635,4.20624 9.76635,9.748635 0,5.5425 -4.2681,9.71115 -9.76635,9.71115 -5.49825,0 -9.72855,-4.16865 -9.72855,-9.71115 z m 4.23015,0.0048 c 0,3.1758 2.38485,5.6223 5.4984,5.6223 3.1134,0 5.53605,-2.45115 5.53605,-5.6223 0,-3.21354 -2.42265,-5.660115 -5.53605,-5.660115 -3.11355,0 -5.4984,2.446575 -5.4984,5.660115 z M 189.2745,29.594865 h -2.86275 c -0.38805,0 -0.705,0.315225 -0.705,0.70104 V 47.59605 c 0,0.3858 0.31695,0.7011 0.705,0.7011 h 2.86275 c 0.38805,0 0.705,-0.3153 0.705,-0.7011 V 30.291195 c -0.004,-0.385815 -0.31695,-0.69633 -0.705,-0.69633 z m -100.72953,0 h 0.03786 c 0.54414,0 0.98421,0.432855 0.98895,0.97392 V 47.6007 c 0,0.3858 -0.31704,0.7011 -0.705045,0.7011 h -2.86272 c -0.388005,0 -0.70503,-0.3153 -0.70503,-0.7011 V 33.843435 h -2.57883 c -0.387994,0 -0.705018,-0.315225 -0.705018,-0.70104 v -2.84649 c 0,-0.385815 0.317024,-0.70104 0.705018,-0.70104 h 3.279135 z m -3.15606,-7.466748 c 0.388005,-0.385808 0.979485,-0.385808 2.044125,-0.385808 1.06464,0 1.656105,0 2.04411,0.385808 0.388005,0.385803 0.388005,0.973923 0.388005,2.032548 0,1.05861 0,1.64673 -0.388005,2.03253 -0.388005,0.385815 -0.97947,0.385815 -2.04411,0.385815 -1.06464,0 -1.65612,0 -2.044125,-0.385815 -0.388005,-0.3858 -0.388005,-0.97392 -0.388005,-2.03253 0,-1.058625 0,-1.646745 0.388005,-2.032548 z"
     id="path4"
     style="stroke-width:1" />
</svg>
