<?xml version="1.0" encoding="UTF-8"?>
<svg xmlns="http://www.w3.org/2000/svg" width="596" height="65" viewBox="0 0 596 65" fill="none">
  <g clip-path="url(#clip0_516_54809)">
    <path d="M166.97 17.5601C170.341 12.0454 176.669 9.16364 185.665 9.16364C199.624 9.16364 206.696 16.254 206.696 31.4092C206.696 46.5644 198.921 53.8621 185.603 53.8621C175.015 53.8621 169.658 50.3583 166.908 46.2119L166.432 46.2741C166.494 48.3473 166.494 50.3998 166.494 52.8876C166.494 56.267 166.639 59.5012 166.701 63.0256H145.732C146.001 54.6291 146.001 41.4643 146.001 30.7043C146.001 21.748 146.001 15.6735 145.856 10.0344H166.618C166.618 11.4027 166.556 12.6466 166.556 13.8906C166.556 14.9894 166.494 16.0882 166.412 17.3321L166.97 17.5394V17.5601ZM166.143 39.0593C168.831 40.2203 172.119 40.7801 176.462 40.7801C183.411 40.7801 186.368 38.0849 186.368 30.9945C186.368 23.9042 183.266 21.7688 177.434 21.7688C170.982 21.7688 166.163 24.5261 166.163 31.4092V39.0593H166.143Z" fill="#F6F3F0"></path>
    <path d="M248.49 27.2006C248.49 22.5773 246.836 20.8565 240.239 20.8565C233.084 20.8565 231.305 22.8468 231.512 27.1176C229.527 26.9103 226.425 26.9103 223.137 26.9103C219.435 26.9103 215.568 26.9725 213.376 27.2628C213.231 14.0979 220.593 8.93559 240.653 8.93559C260.712 8.93559 268.281 14.865 268.281 26.1018C268.281 31.6787 268.074 35.6178 268.074 40.9252C268.074 45.5485 268.488 50.9803 269.17 52.9913H252.875C249.235 52.9913 248.677 52.7218 248.677 48.8656C248.677 47.9741 248.677 46.668 248.739 45.2168H248.325C246.05 51.1461 239.66 53.9657 229.982 53.9657C218.029 53.9657 211.97 50.7937 211.97 41.8374C211.97 32.8812 219.042 29.2323 234.986 29.2323C240.425 29.2323 245.161 29.3774 248.449 29.9165V27.2213L248.49 27.2006ZM248.428 35.5971C245.409 35.2446 242.245 35.1824 238.936 35.1824C233.291 35.1824 230.892 36.4264 230.892 39.1837C230.892 41.9411 232.877 43.0399 238.378 43.0399C244.354 43.0399 248.408 40.4277 248.408 35.5971H248.428Z" fill="#F6F3F0"></path>
    <path d="M335.553 10.0344C332.058 15.404 327.509 23.3237 322.504 31.5336C327.529 39.5154 332.616 47.3729 335.967 52.9706H312.04C310.386 49.3217 308.876 46.8339 306.684 42.7082C305.526 40.3033 304.616 38.23 303.995 36.4471H303.375C302.693 38.313 301.721 40.5106 300.563 42.9155C298.37 47.0412 296.778 49.9437 295.475 52.9706H273.41C277.111 47.518 282.199 39.391 287.286 31.2019C282.261 23.3444 277.463 15.4247 273.741 10.0551H297.729C299.301 13.704 301.224 17.2284 303.375 21.4992C304.409 23.4273 305.091 25.2103 305.65 26.7445H306.208C306.767 25.1688 307.511 23.4273 308.483 21.437C310.675 17.0211 312.681 13.2479 313.984 10.0759H335.574L335.553 10.0344Z" fill="#F6F3F0"></path>
    <path d="M341.199 52.9706C341.261 51.8718 341.343 50.0059 341.343 47.8083C341.343 46.2326 341.281 44.4289 341.281 42.646C341.281 31.5543 348.705 28.3823 363.347 25.6249C376.272 23.0127 379.56 22.0383 379.56 17.8297C379.56 14.9272 376.872 13.2064 370.626 13.2064C363.409 13.2064 360.865 15.1967 360.865 19.0529C360.865 19.9443 360.927 20.7736 361.01 21.8724C358.818 21.7273 355.716 21.6651 352.428 21.6651C348.168 21.6651 344.528 21.7273 341.922 22.0175C341.778 20.4419 341.654 18.9907 341.654 17.6845C341.654 5.82578 351.146 0.311035 370.936 0.311035C390.727 0.311035 399.868 6.57213 399.868 16.9174C399.868 27.2628 394.036 31.1189 378.071 33.5239C365.353 35.3068 362.127 36.1361 361.506 38.6862C368.248 38.624 376.21 38.541 380.821 38.541C387.563 38.541 393.746 38.3337 398.958 38.1264C398.896 40.2618 398.813 43.2265 398.813 46.1082C398.813 48.99 398.813 51.3535 398.958 52.9291H341.219L341.199 52.9706Z" fill="#F6F3F0"></path>
    <path d="M426.483 17.5601C429.854 12.0454 436.182 9.16364 445.178 9.16364C459.137 9.16364 466.209 16.254 466.209 31.4092C466.209 46.5644 458.433 53.8621 445.115 53.8621C434.527 53.8621 429.171 50.3583 426.421 46.2119L425.945 46.2741C426.007 48.3473 426.007 50.3998 426.007 52.8876C426.007 56.267 426.152 59.5012 426.214 63.0256H405.245C405.513 54.6291 405.513 41.4643 405.513 30.7043C405.513 21.748 405.513 15.6735 405.369 10.0344H426.131C426.131 11.4027 426.069 12.6466 426.069 13.8906C426.069 14.9894 426.007 16.0882 425.924 17.3321L426.483 17.5394V17.5601ZM425.656 39.0593C428.344 40.2203 431.632 40.7801 435.975 40.7801C442.923 40.7801 445.881 38.0849 445.881 30.9945C445.881 23.9042 442.779 21.7688 436.947 21.7688C430.495 21.7688 425.676 24.5261 425.676 31.4092V39.0593H425.656Z" fill="#F6F3F0"></path>
    <path d="M507.983 27.2006C507.983 22.5773 506.328 20.8565 499.731 20.8565C492.576 20.8565 490.797 22.8468 491.004 27.1176C489.019 26.9103 485.917 26.9103 482.629 26.9103C478.927 26.9103 475.06 26.9725 472.868 27.2628C472.723 14.0979 480.085 8.93559 500.145 8.93559C520.204 8.93559 527.773 14.865 527.773 26.1018C527.773 31.6787 527.566 35.6178 527.566 40.9252C527.566 45.5485 527.98 50.9803 528.663 52.9913H512.367C508.727 52.9913 508.169 52.7218 508.169 48.8656C508.169 47.9741 508.169 46.668 508.231 45.2168H507.817C505.542 51.1461 499.152 53.9657 489.474 53.9657C477.521 53.9657 471.462 50.7937 471.462 41.8374C471.462 32.8812 478.534 29.2323 494.479 29.2323C499.917 29.2323 504.653 29.3774 507.941 29.9165V27.2213L507.983 27.2006ZM507.92 35.5971C504.901 35.2446 501.737 35.1824 498.428 35.1824C492.783 35.1824 490.384 36.4264 490.384 39.1837C490.384 41.9411 492.369 43.0399 497.87 43.0399C503.847 43.0399 507.9 40.4277 507.9 35.5971H507.92Z" fill="#F6F3F0"></path>
    <path d="M595.604 10.0344C591.964 18.0163 584.54 38.2093 580.755 46.2119C575.399 58.6097 569.485 63.9793 553.396 63.9793C544.876 63.9793 538.961 62.7354 533.605 61.222C534.225 58.9414 536.004 49.9852 536.355 47.1656C541.174 49.1559 547.419 50.1925 553.127 50.1925C557.945 50.1925 560.551 49.0107 562.061 45.5692C556.146 45.507 550.728 45.507 548.04 45.6314C545.641 40.0545 537.038 19.3224 532.923 10.0137H555.671C556.56 13.393 559.31 21.0431 561.585 27.9262C562.95 31.9897 563.984 35.6385 564.811 38.6032H565.432C566.321 35.6385 567.562 31.9897 568.802 27.864C571.077 20.9809 573.828 12.9783 574.572 10.0137H595.604V10.0344Z" fill="#F6F3F0"></path>
    <path d="M60.3028 64C48.0396 63.9378 37.1412 56.9926 31.8265 45.8594L31.7437 45.6728L17.4953 60.828C15.5513 62.8805 12.9457 64.0207 10.1332 64.0207C7.52751 64.0207 5.04592 63.0256 3.16404 61.2219C-0.889233 57.345 -1.05467 50.8766 2.7918 46.7924L38.8577 8.3965L38.899 8.43797C44.7928 2.98542 52.3617 0 60.4062 0H60.5509C72.8142 0.0621963 83.7125 7.00745 89.0272 18.1406L89.11 18.3272L103.358 3.17201C105.282 1.14027 107.908 0 110.721 0C113.326 0 115.808 0.995141 117.69 2.79883C121.743 6.67574 121.908 13.1442 118.083 17.2284L81.9961 55.5828L81.9547 55.5413C76.0816 60.9938 68.492 64 60.4475 64H60.3028ZM60.4269 20.7943C54.3263 20.7943 49.3217 25.8115 49.301 31.9689C49.2804 38.1471 54.2436 43.2057 60.3855 43.2472C66.5481 43.2472 71.5527 38.23 71.5734 32.0726C71.594 25.8944 66.6308 20.8358 60.4889 20.7943H60.4269Z" fill="#CBEE4D"></path>
  </g>
  <defs>
    <clipPath id="clip0_516_54809">
      <rect width="596" height="65" fill="white"></rect>
    </clipPath>
  </defs>
</svg>
