<?xml version="1.0" encoding="UTF-8" standalone="no"?>
<svg
   xmlns:svg="http://www.w3.org/2000/svg"
   xmlns="http://www.w3.org/2000/svg"
   id="svg864"
   version="1.1"
   viewBox="0 0 74.923438 21.439941"
   height="21.439941mm"
   width="74.923439mm">
  <path
     style="fill:#cc0000;opacity:1;fill-opacity:1;fill-rule:nonzero;stroke:none;"
     d="m 13.439924,10.719968 a 2.7199623,2.7199623 0 0 1 -2.719963,2.71996 2.7199623,2.7199623 0 0 1 -2.7199609,-2.71996 2.7199623,2.7199623 0 0 1 2.7199609,-2.7199597 2.7199623,2.7199623 0 0 1 2.719963,2.7199597 z"
     id="circle5433" />
  <path
     id="path5453"
     style="fill:#eeeeec;opacity:1;fill-opacity:1;fill-rule:nonzero;stroke:none;"
     d="m 62.680924,6.047496 c -1.499552,1.4242323 -1.857276,3.1932723 -1.857276,5.156992 0,1.963736 0.357725,3.734336 1.857276,5.158576 l 0.641089,-0.67408 c -1.281139,-1.2168 -1.566585,-2.625048 -1.566585,-4.484496 0,-1.8594317 0.285447,-3.2661117 1.566585,-4.482912 z m 2.385232,0 -0.64109,0.67408 c 1.28114,1.2168003 1.566585,2.6234803 1.566585,4.482912 0,1.859448 -0.285444,3.267696 -1.566585,4.484496 l 0.64109,0.67408 c 1.499551,-1.42424 1.857276,-3.19484 1.857276,-5.158576 0,-1.9637197 -0.357724,-3.7327597 -1.857276,-5.156992 z m -39.15566,2.1204243 c -0.10056,0 -0.195648,0.0048 -0.289124,0.01064 -0.04501,0.0032 -0.0893,0.0072 -0.132597,0.01152 -0.04034,0.004 -0.07903,0.0094 -0.117952,0.01464 -0.119087,0.01648 -0.233135,0.03696 -0.339257,0.06424 -0.114683,0.02952 -0.22437,0.0632 -0.323273,0.105984 -0.318799,0.129208 -0.568541,0.31864 -0.749453,0.568512 -0.189564,0.24124 -0.322909,0.534312 -0.400447,0.878928 -0.07754,0.3360317 -0.116612,0.7106077 -0.116612,1.1241597 v 0.517072 c 0,0.413536 0.03907,0.78812 0.116612,1.12416 0.07754,0.344608 0.210883,0.63768 0.400447,0.878928 0.180912,0.249864 0.430654,0.439288 0.749453,0.568504 0.0989,0.0428 0.20859,0.0764 0.323273,0.105984 0.106122,0.02728 0.22017,0.04776 0.339257,0.06432 0.03891,0.0048 0.0776,0.01064 0.117952,0.01464 0.0433,0.0048 0.0876,0.0085 0.132597,0.01152 0.09348,0.0056 0.188564,0.01064 0.289124,0.01064 h 1.525501 1.589776 V 8.1678563 h -1.589776 -1.525501 z m 0.103331,1.305536 h 1.42217 V 12.93684 h -1.42217 c -0.396339,0 -0.659239,-0.124848 -0.788475,-0.37472 -0.129236,-0.249848 -0.193786,-0.659264 -0.193786,-1.227928 v -0.258088 c 0,-0.56868 0.06455,-0.978088 0.193786,-1.2279357 0.129236,-0.249864 0.392136,-0.374712 0.788475,-0.374712 z m 3.964028,-1.305184 V 11.46384 c 0,0.413544 0.03887,0.788128 0.116408,1.12416 0.07754,0.344616 0.210793,0.637632 0.400357,0.878872 0.180913,0.249872 0.43078,0.439512 0.749577,0.568728 0.318778,0.137832 0.719401,0.206632 1.201905,0.206632 h 1.275905 c -0.01318,0.470568 -0.074,0.823704 -0.188331,1.044744 -0.129235,0.249872 -0.391905,0.374584 -0.788241,0.374584 H 31.567228 30.59606 l -0.164216,1.305424 h 2.416692 c 0.482504,0 0.883128,-0.0688 1.201905,-0.206624 0.318799,-0.129208 0.568664,-0.318872 0.749578,-0.568736 0.189563,-0.24124 0.323236,-0.534264 0.400772,-0.878872 0.0741,-0.321152 0.111878,-0.678576 0.115161,-1.07052 h 0.0013 v -0.05368 -6.0203197 h -1.589788 v 4.7689437 h -1.177791 c -0.396337,0 -0.659005,-0.125128 -0.788242,-0.374992 -0.129238,-0.249848 -0.194151,-0.659016 -0.194151,-1.22768 V 8.1682323 Z M 17.402148,6.242568 v 7.999664 h 1.589789 V 11.47964 h 1.480033 c 0.10056,0 0.195462,-0.0048 0.288939,-0.01088 0.04501,-0.0032 0.08932,-0.0064 0.132621,-0.0112 0.04035,-0.004 0.07915,-0.0098 0.11807,-0.01456 0.119087,-0.01648 0.233121,-0.0372 0.339244,-0.0644 0.114683,-0.02952 0.224127,-0.0632 0.323029,-0.106008 0.318801,-0.129208 0.568667,-0.318456 0.749579,-0.56832 0.189563,-0.241248 0.322819,-0.534664 0.400357,-0.8792797 0.07754,-0.336024 0.116823,-0.596696 0.116823,-0.963688 0,-0.366984 -0.03928,-0.628064 -0.116823,-0.964104 C 22.746269,7.5525923 22.613015,7.259152 22.423452,7.017912 22.24254,6.768048 21.992674,6.578808 21.673873,6.4496 21.574973,6.40688 21.465527,6.37312 21.350844,6.343584 21.244721,6.316304 21.130687,6.295664 21.0116,6.279104 c -0.03892,-0.0056 -0.07772,-0.01056 -0.11807,-0.01456 -0.0433,-0.004 -0.08762,-0.00808 -0.132621,-0.01128 -0.09348,-0.0056 -0.188379,-0.0108 -0.288939,-0.0108 z m 1.589789,1.3054243 h 1.376514 c 0.396337,0 0.659421,0.12512 0.788658,0.374992 0.129241,0.24984 0.193735,0.549256 0.193735,0.93832 0,0.38908 -0.0645,0.68848 -0.193735,0.938328 -0.129237,0.2498637 -0.392321,0.3745837 -0.788658,0.3745837 H 18.991937 Z M 58.467034,12.93684 H 56.61816 c -0.396337,0 -0.659237,-0.124848 -0.788474,-0.37472 C 55.70045,12.312272 55.6359,11.902856 55.6359,11.334192 v -0.258088 c 0,-0.56868 0.06455,-0.978088 0.193786,-1.2279357 0.129237,-0.249864 0.392137,-0.374712 0.788474,-0.374712 h 1.848874 l 0.209192,-1.305496 H 57.795978 56.51483 v -4e-5 c -0.100559,0 -0.195648,0.0048 -0.289124,0.01064 -0.045,0.0032 -0.0893,0.0072 -0.132598,0.01152 -0.04034,0.004 -0.07903,0.0094 -0.117951,0.01464 -0.119088,0.01648 -0.233134,0.03696 -0.339257,0.06424 -0.114683,0.02952 -0.22437,0.0632 -0.323272,0.105984 -0.3188,0.129208 -0.568532,0.31864 -0.749445,0.568512 -0.189563,0.24124 -0.322909,0.534312 -0.400447,0.878928 -0.07754,0.3360317 -0.116612,0.7106077 -0.116612,1.1241597 v 0.517072 c 0,0.413536 0.03907,0.78812 0.116612,1.12416 0.07754,0.344608 0.210884,0.63768 0.400447,0.878928 0.180913,0.249864 0.430645,0.439288 0.749445,0.568504 0.0989,0.0428 0.208589,0.0764 0.323272,0.105984 0.106123,0.02728 0.220169,0.04776 0.339257,0.06432 0.03891,0.0048 0.0776,0.01064 0.117951,0.01464 0.0433,0.0048 0.0876,0.0085 0.132598,0.01152 0.09348,0.0056 0.188565,0.01064 0.289124,0.01064 h 1.281148 0.880248 z M 47.058433,14.242392 H 44.1876 c -0.482502,0 -0.883131,-0.06896 -1.201908,-0.206776 -0.3188,-0.129216 -0.568668,-0.318776 -0.74958,-0.568648 -0.189564,-0.24124 -0.323114,-0.534176 -0.400651,-0.878792 -0.07754,-0.336032 -0.116296,-0.710824 -0.116296,-1.124368 V 8.1682563 h 1.589619 v 3.1662877 c 0,0.568664 0.06462,0.977928 0.193854,1.227776 0.129236,0.249864 0.392001,0.374784 0.788338,0.374784 h 1.17784 V 8.1682563 h 1.589617 z m 0.95204,-6.0741357 h 2.870834 c 0.482503,0 0.883131,0.06896 1.201908,0.206776 0.3188,0.129232 0.568668,0.318784 0.74958,0.56864 0.189564,0.241248 0.323114,0.534184 0.400652,0.878816 0.07754,0.3360157 0.116294,0.7182877 0.116294,1.1243677 v 3.29556 h -1.589617 v -3.166312 c 0,-0.568664 -0.06462,-0.97792 -0.193855,-1.2277757 -0.129237,-0.249864 -0.392,-0.374792 -0.788338,-0.374792 h -1.17784 V 14.242416 H 48.010473 Z M 36.269112,14.242416 V 6.2426 H 41.1672 v 1.3182323 h -3.308471 v 1.938568 h 2.894923 v 1.3182237 h -2.894923 v 3.424792 z" />
</svg>
