<?xml version="1.0" encoding="UTF-8" standalone="no"?>
<!-- Created with Inkscape (http://www.inkscape.org/) -->

<svg
   width="105.87696mm"
   height="105.84484mm"
   viewBox="0 0 105.87696 105.84484"
   version="1.1"
   id="svg5"
   xml:space="preserve"
   inkscape:version="1.2.2 (b0a8486541, 2022-12-01)"
   sodipodi:docname="uppsala-js.svg"
   xmlns:inkscape="http://www.inkscape.org/namespaces/inkscape"
   xmlns:sodipodi="http://sodipodi.sourceforge.net/DTD/sodipodi-0.dtd"
   xmlns="http://www.w3.org/2000/svg"
   xmlns:svg="http://www.w3.org/2000/svg"><sodipodi:namedview
     id="namedview7"
     pagecolor="#505050"
     bordercolor="#eeeeee"
     borderopacity="1"
     inkscape:showpageshadow="0"
     inkscape:pageopacity="0"
     inkscape:pagecheckerboard="0"
     inkscape:deskcolor="#d1d1d1"
     inkscape:document-units="mm"
     showgrid="false"
     inkscape:zoom="1.6819304"
     inkscape:cx="262.79327"
     inkscape:cy="232.1737"
     inkscape:window-width="2560"
     inkscape:window-height="1403"
     inkscape:window-x="0"
     inkscape:window-y="0"
     inkscape:window-maximized="1"
     inkscape:current-layer="layer1" /><defs
     id="defs2" /><g
     inkscape:label="Lager 1"
     inkscape:groupmode="layer"
     id="layer1"
     transform="translate(434.86249,175.38618)"><g
       id="g736"><path
         id="rect356"
         style="fill:#f7df1d;stroke-width:4.96783;stroke-linecap:round;stroke-linejoin:round"
         d="m -434.86249,-175.38618 h 105.87696 v 105.844836 h -105.87696 z" /><path
         style="fill:#000000;stroke-width:0.264583"
         d="m -434.86247,-87.643176 c 0,-9.95605 0.0958,-18.141604 0.21286,-18.190114 0.11707,-0.0485 1.36468,-1.93756 2.77246,-4.19789 l 2.55962,-4.1097 -0.16518,-1.39468 c -0.13467,-1.13707 -0.0514,-1.63749 0.45058,-2.70935 0.33867,-0.72307 0.73991,-1.27329 0.89164,-1.22271 0.37513,0.12504 0.69244,1.7909 0.43677,2.29296 -0.11351,0.2229 -0.28465,0.73268 -0.38032,1.13287 l -0.17393,0.7276 h 2.06369 2.06369 l 0.98349,-1.98759 0.98348,-1.9876 0.99277,0.13432 c 0.54601,0.0739 3.61213,0.37351 6.81359,0.66587 3.20146,0.29236 6.24887,0.58901 6.77202,0.65922 l 0.95119,0.12767 0.17232,-3.76688 c 0.0948,-2.07178 0.17276,-4.80868 0.17329,-6.08198 l 9.7e-4,-2.31511 h -0.92604 c -0.64676,0 -0.92604,-0.11969 -0.92604,-0.39687 0,-0.26402 0.26402,-0.39688 0.78871,-0.39688 0.6016,0 0.82067,-0.14122 0.92346,-0.59531 0.0741,-0.32742 1.27067,-8.21531 2.65902,-17.52865 1.38835,-9.31333 2.56256,-17.0524 2.60934,-17.19792 0.13958,-0.43415 0.38097,1.38348 1.49339,11.2448 0.58276,5.16599 1.41484,12.53304 1.84907,16.37123 0.43423,3.83818 0.78951,7.13677 0.78951,7.3302 0,0.19342 0.41672,0.42985 0.92604,0.5254 0.67014,0.12572 0.92604,0.31182 0.92604,0.67345 0,0.39472 -0.19457,0.49972 -0.92604,0.49972 h -0.92604 v 5.85496 5.85495 l 2.4474,-0.18282 c 1.34606,-0.10055 5.18583,-0.40618 8.53281,-0.67918 3.34698,-0.273 7.18674,-0.57863 8.53281,-0.67918 l 2.4474,-0.18282 v -1.70469 c 0,-1.32123 0.14381,-1.95337 0.63932,-2.81015 0.61905,-1.07039 0.64913,-1.37646 0.94843,-9.65032 0.21606,-5.97274 0.22547,-8.64565 0.0312,-8.87968 -0.20807,-0.2507 0.18507,-0.79419 1.56511,-2.16365 1.58553,-1.57339 1.84313,-1.95921 1.84414,-2.76199 0.001,-0.88662 0.86263,-7.8449 2.63692,-21.29763 0.44082,-3.34234 0.80149,-6.2296 0.80149,-6.41614 0,-0.26553 1.26113,-0.33916 5.80885,-0.33916 h 5.80884 l 0.1325,0.85989 c 0.0729,0.47295 0.43357,3.36021 0.80156,6.41615 0.36798,3.05593 0.97803,7.99703 1.35566,10.98021 0.37763,2.98317 0.76646,6.84314 0.86407,8.5777 0.19558,3.47532 0.66051,4.39954 0.91391,1.8167 0.19368,-1.97416 3.30531,-26.6559 3.50432,-27.79655 l 0.15103,-0.86568 4.92823,0.0719 4.92824,0.0719 1.79049,14.2875 c 0.98477,7.85812 1.81125,15.26431 1.83662,16.45819 l 0.0461,2.17069 1.6226,1.55771 1.62259,1.55771 -0.23373,4.15379 c -0.20938,3.72093 -0.18495,4.26199 0.2345,5.19216 0.3965,0.87927 0.44763,1.5567 0.33365,4.42094 -0.12274,3.0846 -0.0853,3.47578 0.42546,4.44089 0.55711,1.0528 0.56051,1.19022 0.6495,26.259904 l 0.0895,25.20156 h -52.93848 -52.93848 z m 63.6323,11.88295 c 2.83209,-0.80139 5.08474,-2.93785 6.13014,-5.81398 0.44083,-1.21281 0.48949,-2.55562 0.55865,-15.41758 l 0.0757,-14.089074 h -3.58071 -3.58071 v 13.000044 c 0,9.0163 -0.0931,13.31059 -0.30364,14.01348 -0.485,1.61878 -1.28426,2.18104 -3.28116,2.3082 -2.03135,0.12934 -3.00319,-0.38343 -4.25054,-2.24269 -0.41999,-0.62602 -0.84738,-1.14084 -0.94975,-1.14404 -0.1451,-0.005 -5.29842,2.99225 -5.73488,3.33498 -0.2584,0.2029 1.7666,2.88847 2.97731,3.94852 2.82388,2.47249 7.63635,3.3198 11.93954,2.10214 z m 28.14761,0.10904 c 3.15366,-0.70214 5.86756,-2.78813 7.12924,-5.47976 0.62575,-1.33497 0.70621,-1.82465 0.70415,-4.28532 -0.002,-2.44228 -0.0863,-2.95789 -0.69722,-4.26509 -1.41503,-3.02796 -3.88438,-4.90882 -9.74022,-7.41894 -2.13907,-0.91691 -3.64825,-1.74674 -4.29948,-2.36407 -0.91357,-0.866014 -1.00346,-1.075764 -1.00346,-2.341564 0,-1.2284 0.10478,-1.49513 0.89959,-2.28993 0.81258,-0.81258 1.0454,-0.89958 2.4074,-0.89958 1.85695,0 3.06014,0.54421 4.0013,1.80983 0.39604,0.53256 0.75323,1.01198 0.79376,1.06536 0.0405,0.0534 1.32912,-0.70325 2.86353,-1.68143 l 2.78985,-1.7785 -0.46157,-0.79308 c -0.25386,-0.43619 -1.14206,-1.42562 -1.97377,-2.19873 -1.91034,-1.77575 -3.79039,-2.52075 -6.82217,-2.70339 -5.15402,-0.31049 -9.02372,1.63963 -10.80877,5.44704 -0.61839,1.319 -0.70061,1.82037 -0.70061,4.27248 0,2.439684 0.0838,2.956884 0.68821,4.245414 1.35823,2.89577 3.36857,4.50086 8.43992,6.73858 4.16782,1.83904 5.15264,2.38184 5.78887,3.19068 1.36715,1.73805 0.80242,3.98302 -1.29095,5.1319 -0.95847,0.52602 -1.55176,0.65039 -3.04271,0.63783 -2.79288,-0.0236 -4.89408,-1.16778 -6.62603,-3.6083 l -0.51772,-0.72954 -2.77813,1.61392 c -1.52797,0.88765 -2.81667,1.65136 -2.86378,1.69713 -0.19575,0.19019 0.86721,1.86201 1.88798,2.96941 2.8959,3.14169 7.23144,4.72164 12.0883,4.40522 1.09141,-0.0711 2.50643,-0.24551 3.14449,-0.38757 z"
         id="path248" /></g></g></svg>
