<?xml version="1.0" encoding="UTF-8" standalone="no"?>
<svg id="header_logo_svg" class="c-site-nav__site-logo__img u-inline-block" width="100%" version="1.1" xmlns="http://www.w3.org/2000/svg" xmlns:xlink="http://www.w3.org/1999/xlink" x="0px" y="0px" viewBox="0 0 311 81" style="enable-background:new 0 0 311 81;" xml:space="preserve">
<path fill="white" d="M102.5,33.9h8.9l-10.2,26.5h-7.7L83.2,33.9H92l5.3,16.4h0.1L102.5,33.9z M114.9,60.5h8.4V33.9h-8.4V60.5z M119.1,20.9
	c-2.9,0-5.3,2-5.3,4.9c0,2.9,2.4,4.9,5.3,4.9c2.9,0,5.3-2,5.3-4.9C124.4,22.9,122.1,20.9,119.1,20.9z M147.6,20.5h8.5v39.9h-8v-2.9
	h-0.1c-1.7,2.2-4.3,3.4-7.6,3.4c-7.3,0-12.5-5.5-12.5-13.7c0-8.1,5.2-13.8,12.1-13.8c3,0,5.6,1.1,7.5,3.3h0.1V20.5z M148,47.2
	c0-3.7-2.4-6.3-5.8-6.3c-3.2,0-5.7,2.5-5.7,6.3c0,3.7,2.4,6.2,5.7,6.2C145.5,53.5,148,51,148,47.2z M178.4,33.4
	c-3.2,0-6.1,1.2-8.2,3.6h-0.1V20.5h-8.5v39.9h8.5V47.1h0c0-4.1,2-6.1,4.9-6.1c3,0,4.4,1.3,4.4,5.5v13.9h8.5v-16
	C188,36.1,184,33.4,178.4,33.4z M211.4,33.9h8.5v26.5h-8v-2.9h-0.1c-1.7,2.2-4.2,3.4-7.4,3.4c-7.3,0-12.5-5.5-12.5-13.7
	c0-8.1,5.2-13.8,12.1-13.8c2.9,0,5.4,1.1,7.3,3.3h0.1V33.9z M211.7,47.2c0-3.7-2.4-6.3-5.6-6.3c-3.2,0-5.7,2.5-5.7,6.3
	c0,3.7,2.4,6.2,5.7,6.2C209.2,53.5,211.7,51,211.7,47.2z M241.8,33.4c-3.1,0-5.9,1.3-8,3.7h-0.1v-3.2h-8.5v26.5h8.5V47.1
	c0-4.1,2-6.1,4.9-6.1c2.8,0,4.2,1.3,4.2,5.6v13.8h8.5V44.5C251.3,36.2,247.4,33.4,241.8,33.4z M269.9,53.4c-3.6,0-6-2.6-6-6.3
	c0-3.6,2.4-6.1,6-6.1c2.4,0,4.2,1,5.5,2.6l5.7-4.8c-2.7-3.5-7.1-5.3-11.5-5.3c-8.3,0-14.2,5.6-14.2,13.8c0,8.2,5.9,13.8,13.8,13.8
	c5.6,0,9.7-2.2,12-4.9l-5.8-5.1C274.3,52.2,272.5,53.4,269.9,53.4z M309.8,49.5h-18c0.6,3,3.2,4.6,6.3,4.6c2.5,0,4.6-1.1,6.4-3.2
	l4.5,5.1c-2.2,2.8-6.3,5.1-11.8,5.1c-7.9,0-13.8-5.6-13.8-13.8c0-8,5.7-13.8,13.5-13.8c7.7,0,13.2,5.6,13.2,13.5
	C310,47.7,309.9,48.9,309.8,49.5z M301.7,44.4c-0.6-2.6-2.3-4.2-4.8-4.2c-2.5,0-4.6,1.5-5.1,4.2L301.7,44.4z M35.3,0.6l34.3,20v39.8
	l-34.3,20L1,60.5V20.5L35.3,0.6z M33.8,43.3V27.7l-10.2,5.9v13.7l11.7,6.8L47,47.3V35.5L33.8,43.3z M66.6,24.1l-16.5,9.6v15.4
	l-14.8,8.6l-14.8-8.6V31.9l13.3-7.7V5L4,22.3v36.4l31.3,18.2l31.3-18.2V24.1z M36.8,24.2L48.6,31l16.4-9.6L36.8,5V24.2z M36.8,37.9
	l8.7-5.1l-8.7-5.1V37.9z"></path>
</svg>