<?xml version="1.0" encoding="UTF-8" standalone="no"?>
<!-- Created with Inkscape (http://www.inkscape.org/) -->

<svg
   width="45.928307mm"
   height="22.554546mm"
   viewBox="0 0 45.928306 22.554546"
   version="1.1"
   id="svg5"
   xml:space="preserve"
   inkscape:version="1.2.2 (b0a8486541, 2022-12-01)"
   sodipodi:docname="yuniq-dark.svg"
   xmlns:inkscape="http://www.inkscape.org/namespaces/inkscape"
   xmlns:sodipodi="http://sodipodi.sourceforge.net/DTD/sodipodi-0.dtd"
   xmlns="http://www.w3.org/2000/svg"
   xmlns:svg="http://www.w3.org/2000/svg"><sodipodi:namedview
     id="namedview7"
     pagecolor="#505050"
     bordercolor="#eeeeee"
     borderopacity="1"
     inkscape:showpageshadow="0"
     inkscape:pageopacity="0"
     inkscape:pagecheckerboard="0"
     inkscape:deskcolor="#d1d1d1"
     inkscape:document-units="mm"
     showgrid="false"
     inkscape:zoom="1.6819304"
     inkscape:cx="93.939677"
     inkscape:cy="103.74983"
     inkscape:window-width="2560"
     inkscape:window-height="1403"
     inkscape:window-x="0"
     inkscape:window-y="0"
     inkscape:window-maximized="1"
     inkscape:current-layer="layer1" /><defs
     id="defs2" /><g
     inkscape:label="Lager 1"
     inkscape:groupmode="layer"
     id="layer1"
     transform="translate(112.98242,-40.205788)"><path
       style="fill:#ff2e2e;fill-opacity:0.992157;stroke-width:0.264583"
       d="m -82.489825,46.353613 c -1.048726,-0.262014 -1.263491,-1.459276 -0.349509,-1.948424 0.46586,-0.249321 0.745207,-0.217715 1.455208,0.164646 0.984599,0.530241 1.147334,1.285804 0.366903,1.703477 -0.537961,0.287909 -0.623065,0.292549 -1.472602,0.0803 z"
       id="path318" /><path
       id="path304"
       style="fill:#ffffff;stroke-width:0.264583"
       d="m -107.74416,58.091767 c -0.30236,-0.795278 0.006,-2.173103 0.80506,-3.594414 l 0.62423,-1.110672 -0.56294,-0.443177 c -0.30962,-0.243746 -0.85801,-1.276613 -1.21865,-2.295259 -1.19261,-3.368611 -1.18087,-5.545936 0.0334,-6.195796 1.08752,-0.582023 2.04473,0.890569 2.8235,4.343713 0.17271,0.765813 0.20372,0.733201 0.88104,-0.926615 1.29645,-3.177035 2.19713,-4.174447 3.09597,-3.428472 0.99132,0.822719 -0.0652,5.09911 -2.51416,10.176286 -1.79607,3.723641 -3.35398,5.087944 -3.96745,3.474406 z m 30.761351,-0.02566 c -1.808829,-0.786706 -2.877597,-3.571594 -2.672297,-6.963188 0.162126,-2.678334 0.989711,-4.616603 2.410648,-5.645923 1.98265,-1.436224 3.978931,-0.783539 5.25707,1.718803 0.685903,1.342862 0.969076,5.335077 0.508238,7.165233 -0.253807,1.007954 -0.234939,1.344525 0.113094,2.017546 0.798644,1.544411 -0.05599,2.735026 -1.212173,1.6887 -0.465706,-0.421459 -0.573815,-0.423053 -1.573168,-0.02319 -1.288973,0.515745 -1.727247,0.522249 -2.831412,0.04202 z m 1.65957,-4.176715 c -0.01976,-0.972971 0.05738,-1.135871 0.572477,-1.209027 0.50298,-0.07144 0.595312,-0.247158 0.595312,-1.132978 0,-1.305529 -0.635963,-2.883516 -1.162121,-2.883516 -1.143818,0 -1.671754,3.431625 -0.835756,5.432457 0.518152,1.24011 0.857756,1.155449 0.830088,-0.206936 z m -12.396706,4.116172 c -0.383353,-0.67844 -0.440254,-1.953396 -0.175851,-3.940264 0.319606,-2.401693 0.193581,-3.549346 -0.389756,-3.549346 -0.656405,0 -1.215731,1.696065 -1.215731,3.686506 0,3.144081 -1.159709,4.759907 -2.236635,3.11631 -0.504582,-0.770089 -0.638604,-8.26104 -0.163677,-9.148449 0.399539,-0.746544 1.602328,-0.770417 1.794482,-0.03562 0.167961,0.642285 0.537978,0.672586 1.174864,0.09621 0.673989,-0.609951 2.515953,-0.568401 3.155535,0.07118 0.850954,0.850954 1.125021,3.19528 0.677036,5.791255 -0.213624,1.237903 -0.612796,2.636044 -0.887049,3.10698 -0.470848,0.808517 -1.469261,1.272368 -1.733218,0.805231 z m -11.916622,-0.941917 c -1.114413,-1.05103 -1.641253,-3.127178 -1.361573,-5.365678 0.32709,-2.617925 1.685757,-4.488369 2.595273,-3.572851 0.193575,0.194852 0.302625,1.455535 0.302625,3.49852 0,2.710794 0.06769,3.23708 0.447534,3.479381 0.346503,0.221035 0.577444,0.168535 1.023004,-0.232562 0.534479,-0.481142 0.566725,-0.701711 0.452686,-3.096429 -0.136087,-2.857681 0.161022,-3.737895 1.211178,-3.588232 0.977618,0.139325 1.581303,1.819315 1.590348,4.425768 0.01299,3.742633 -1.160693,5.309701 -3.978307,5.311735 -1.183416,8.47e-4 -1.494634,-0.116345 -2.282768,-0.859652 z m 16.584733,0.295539 c -0.422375,-0.466414 -0.508129,-1.066324 -0.575553,-4.026382 -0.06684,-2.934429 -0.0048,-3.623107 0.396874,-4.40435 0.586476,-1.140719 1.479074,-1.356738 1.979557,-0.479077 0.435864,0.764344 0.441767,7.155066 0.0076,8.202053 -0.450077,1.085295 -1.200578,1.379011 -1.808451,0.707756 z" /></g></svg>
